<?xml version="1.0" encoding="iso-8859-1"?>
<!-- Generator: Adobe Illustrator 19.0.0, SVG Export Plug-In . SVG Version: 6.00 Build 0)  -->
<svg version="1.1" id="Layer_1" xmlns="http://www.w3.org/2000/svg" xmlns:xlink="http://www.w3.org/1999/xlink" x="0px" y="0px"
	 viewBox="0 0 490 490" style="enable-background:new 0 0 490 490;" xml:space="preserve">
<g>
	<g>
		<g>
			<path d="M470,0H20c-5.523,0-10,4.478-10,10v470c0,5.522,4.477,10,10,10h450c5.522,0,10-4.478,10-10V10C480,4.478,475.522,0,470,0
				z M30,20h315v50H30V20z M460,470H30v-20h340v-20H30V90h430V470z M460,70h-95V20h95V70z"/>
			<path d="M245,405c74.439,0,135-60.561,135-135s-60.561-135-135-135s-135,60.561-135,135S170.561,405,245,405z M245,155
				c63.411,0,115,51.589,115,115s-51.589,115-115,115s-115-51.589-115-115S181.589,155,245,155z"/>
			<path d="M245,370c55.141,0,100-44.859,100-100s-44.859-100-100-100c-55.14,0-100,44.859-100,100S189.86,370,245,370z M245,190
				c44.112,0,80,35.888,80,80s-35.888,80-80,80s-80-35.888-80-80S200.888,190,245,190z"/>
			<path d="M250,235v-20c-33.084,0-60,26.916-60,60h20C210,252.944,227.944,235,250,235z"/>
			<rect x="45" y="35" width="25" height="20"/>
			<rect x="85" y="35" width="25" height="20"/>
			<rect x="125" y="35" width="110" height="20"/>
			<rect x="385" y="35" width="20" height="20"/>
			<rect x="420" y="35" width="20" height="20"/>
			<rect x="405" y="115" width="35" height="20"/>
			<rect x="380" y="145" width="60" height="20"/>
			<path d="M85,180c19.299,0,35-15.701,35-35s-15.701-35-35-35s-35,15.701-35,35S65.701,180,85,180z M85,130c8.271,0,15,6.729,15,15
				s-6.729,15-15,15s-15-6.729-15-15S76.729,130,85,130z"/>
		</g>
	</g>
</g>
<g>
</g>
<g>
</g>
<g>
</g>
<g>
</g>
<g>
</g>
<g>
</g>
<g>
</g>
<g>
</g>
<g>
</g>
<g>
</g>
<g>
</g>
<g>
</g>
<g>
</g>
<g>
</g>
<g>
</g>
</svg>
